<mxfile host="app.diagrams.net" modified="2023-07-24T22:49:58.338Z" agent="Mozilla/5.0 (Windows NT 10.0; Win64; x64) AppleWebKit/537.36 (KHTML, like Gecko) Chrome/114.0.0.0 Safari/537.36" version="21.6.5" etag="gPsLnpE3-D3G_m79rAmh" type="github">
  <diagram name="PÃ¡gina-1" id="tb75bTPPpAC_LqLqEpeX">
    <mxGraphModel>
      <root>
        <mxCell id="0" />
        <mxCell id="1" parent="0" />
      </root>
    </mxGraphModel>
  </diagram>
</mxfile>
